<?xml version="1.0" standalone="no"?>
<svg viewBox="0 0 200 200" xmlns="http://www.w3.org/2000/svg">
  <path fill="#FF0066" d="M34.7,-61.8C45.3,-54.1,54.3,-45.3,57.8,-34.8C61.3,-24.3,59.3,-12.2,59.9,0.3C60.5,12.9,63.7,25.7,60.5,36.7C57.2,47.7,47.6,56.7,36.5,61.8C25.3,66.8,12.7,67.9,2,64.4C-8.7,61,-17.4,53.1,-27.7,47.5C-38,42,-49.9,38.8,-59.9,31.3C-69.9,23.8,-78.1,11.9,-81.8,-2.1C-85.4,-16.1,-84.6,-32.2,-78.3,-46.3C-72.1,-60.4,-60.4,-72.4,-46.4,-78.1C-32.5,-83.8,-16.2,-83.2,-2.1,-79.6C12.1,-76,24.2,-69.4,34.7,-61.8Z" transform="translate(100 100)" />
</svg>
